M48
; DRILL file {KiCad 7.0.11} date Saturday, March 08, 2025 at 12:29:18 AM
; FORMAT={-:-/ absolute / inch / decimal}
; #@! TF.CreationDate,2025-03-08T00:29:18-05:00
; #@! TF.GenerationSoftware,Kicad,Pcbnew,7.0.11
; #@! TF.FileFunction,Plated,1,2,PTH
FMAT,2
INCH
; #@! TA.AperFunction,Plated,PTH,ViaDrill
T1C0.0118
; #@! TA.AperFunction,Plated,PTH,ComponentDrill
T2C0.0591
%
G90
G05
T1
X1.9914Y-2.5581
X2.1518Y-2.4823
X2.2817Y-2.6368
X2.4146Y-2.4417
X2.4491Y-2.3691
X3.3504Y-2.5414
X3.3684Y-2.3848
X3.4599Y-2.4528
X4.0189Y-2.4183
X4.1479Y-3.128
X4.2601Y-3.3612
X4.3211Y-3.6033
X4.4294Y-2.3524
X4.5406Y-3.2313
X4.6981Y-2.5046
T2
X1.5469Y-3.1913
X1.7969Y-3.0913
X2.3008Y-2.4402
X2.5508Y-2.3402
X3.0481Y-3.1927
X3.055Y-1.6855
X3.0556Y-2.4409
X3.2981Y-3.0927
X3.305Y-1.5855
X3.3056Y-2.3409
X3.8099Y-2.4421
X4.0599Y-2.3421
M30
